<svg width="128" height="128" viewBox="0 0 128 128" fill="none" xmlns="http://www.w3.org/2000/svg">
<rect width="128" height="128" rx="24" fill="url(#paint0_linear_1_2)"/>
<path d="M64 40C32 40 8 64 8 64C8 64 32 88 64 88C96 88 120 64 120 64C120 64 96 40 64 40Z" stroke="white" stroke-width="8" stroke-linecap="round" stroke-linejoin="round"/>
<path d="M64 76C70.6274 76 76 70.6274 76 64C76 57.3726 70.6274 52 64 52C57.3726 52 52 57.3726 52 64C52 70.6274 57.3726 76 64 76Z" stroke="white" stroke-width="8" stroke-linecap="round" stroke-linejoin="round"/>
<path d="M64 64C60.6863 64 58 61.3137 58 58" stroke="#FFA07A" stroke-width="6" stroke-linecap="round" stroke-linejoin="round"/>
<defs>
<linearGradient id="paint0_linear_1_2" x1="64" y1="0" x2="64" y2="128" gradientUnits="userSpaceOnUse">
<stop stop-color="#89F7FE"/>
<stop offset="1" stop-color="#66A6FF"/>
</linearGradient>
</defs>
</svg>
